<svg xmlns="http://www.w3.org/2000/svg" width="2560.66681" height="1120.48561" viewBox="0 0 2560.66681 1120.48561">
  <defs>
    <style>
      .cls-1 {
        fill: #fff;
      }

      .cls-2 {
        fill: #af0000;
      }
    </style>
  </defs>
  <title>Asset 1</title>
  <g id="Layer_2" data-name="Layer 2">
    <g id="Layer_1-2" data-name="Layer 1">
      <g>
        <path class="cls-1" d="M85.5742,1042.35269c-22.789-5.514-26.469-10.066-26.469-18.809,0-13.833,13.029-15.9,20.795-15.9,14.219,0,21.985,5.67,24.435,17.841l.402,1.99h21.298l-.281-2.731c-1.738-16.998-14.544-35.159-45.264-35.159-26.255,0-43.22,13.929-43.22,35.484,0,19.143,11.426,29.378,40.761,36.51,24.246,5.868,28.681,12.244,28.681,22.687,0,11.804-8.361,18.04-24.183,18.04-16.152,0-25.53-6.764-28.682-20.683l-.435-1.932H32.0702l.383,2.813c1.53,11.348,9.378,37.754,49.04,37.754,34.689,0,47.05-19.473,47.05-37.696,0-15.449-5.205-31.015-42.969-40.209"/>
        <path class="cls-1" d="M251.4404,991.34741l-45.37,127.38h21.419l13.164-36.723h45.384l13.581,36.723h22.591l-47.312-127.38Zm28.623,71.79h-33.47l2.586-7.553c5.936-17.352,10.608-31,13.629-40.485,2.556,7.645,6.478,18.418,11.983,33.538Z"/>
        <polygon class="cls-1" points="405.89 1118.728 426.83 1118.728 426.83 1063.844 485.582 1063.844 485.582 1044.977 426.83 1044.977 426.83 1010.21 489.503 1010.21 489.503 991.347 405.89 991.347 405.89 1118.728"/>
        <polygon class="cls-1" points="596.578 1061.501 657.465 1061.501 657.465 1042.634 596.578 1042.634 596.578 1010.21 660.385 1010.21 660.385 991.347 575.701 991.347 575.701 1118.728 661.009 1118.728 663.851 1099.86 596.578 1099.86 596.578 1061.501"/>
        <path class="cls-1" d="M955.21509,1095.58481l.014-8.826c0-15.914-4.69605-26.25-14.311-31.373,10.443-5.267,16.495-15.633,16.495-28.812,0-21.729-15.725-35.227-41.037-35.227h-50.323v127.381h21.056v-53.925h22.55194c20.877,0,24.401,6.948,24.401,22.528v4.71c-.01,11.039-.019,19.759,2.26606,25.172l.639,1.515h21.085l-1.351-3.394c-1.583-3.98-1.53-12.36-1.486-19.749m-68.106-85.622h25.97c15.014,0,22.629,6.028,22.629,17.909,0,8.526-2.779,18.315-24.459,18.315H887.10913Z"/>
        <path class="cls-1" d="M1102.98322,989.58463c-35.914,0-60.04493,26.304-60.04493,65.453,0,39.148,23.559,65.448,58.626,65.448,41.4,0,59.929-33.218,59.929-66.141,0-38.737-23.515-64.76-58.51-64.76m-.70191,112.101c-25.82507,0-37.38611-23.694-37.38611-47.176,0-10.821,2.69605-46.12,37.42505-46.12,27.442,0,37.217,23.864,37.217,46.193,0,11.048-2.688,47.103-37.256,47.103"/>
        <path class="cls-1" d="M1282.45905,991.34741l-45.37,127.38H1258.508l13.16406-36.723h45.384l13.58093,36.723h22.59107l-47.312-127.38Zm28.623,71.79H1277.612l2.58606-7.553c5.93591-17.352,10.608-31,13.629-40.485,2.55591,7.645,6.4779,18.418,11.98291,33.538Z"/>
        <path class="cls-1" d="M1483.14,991.34674H1436.909v127.381H1482.588c36.317,0,60.713-26.096,60.713-64.934,0-37.353-24.178-62.447-60.161-62.447m-25.03991,18.742H1481.368c29.48,0,39.98206,22.755,39.98206,44.048,0,28.711-14.9701,45.85-40.045,45.85H1458.1Z"/>
        <path class="cls-1" d="M1829.9151,1080.6395c-5.66,14.612-14.738,21.128-29.441,21.128-26.74,0-36.26807-24.202-36.26807-46.856,0-22.639,9.344-46.832,35.561-46.832,15.749,0,25.35,6.889,30.21606,21.685l.557,1.704H1851.523l-.51392-2.909c-4.3081-24.407-23.219-38.975-50.58911-38.975-40.184,0-58.1709,33.058-58.1709,65.816,0,39.4,22.59595,64.857,57.56092,64.857,26.149,0,44.775-13.885,51.103-38.098l.813-3.103h-21.20092Z"/>
        <polygon class="cls-1" points="1961.551 991.347 1940.36 991.347 1940.36 1118.728 2022.772 1118.728 2025.842 1099.86 1961.551 1099.86 1961.551 991.347"/>
        <path class="cls-1" d="M2183.44855,1067.4996c0,23.699-8.884,34.268-28.80713,34.268-13.25611,0-29.054-5.945-29.054-34.268v-76.152h-21.41894v76.457c0,45.636,31.40185,52.453,50.11889,52.453,33.48414,0,50.46412-18.035,50.46412-53.6v-75.31h-21.303Z"/>
        <path class="cls-1" d="M2377.94708,1050.92682c8.604-5.224,13.90991-15.076,13.90991-26.526,0-15.978-10.61792-33.054-40.41186-33.054H2301.984v127.381h50.603c26.3,0,43.293-15.047,43.293-38.335a31.99976,31.99976,0,0,0-17.93286-29.466m-29.606-8.671h-25.47095v-32.545h27.98388c12.30689,0,19.657,6.018,19.657,16.094,0,7.659-2.51807,16.451-22.16992,16.451m-25.47095,18.364H2347.523c17.71,0,26.69116,6.643,26.69116,19.739,0,17.4-14.77612,20-23.583,20h-27.761Z"/>
        <path class="cls-1" d="M2030.19,756.05353v-34.704h257.802v-44.62H2059.93585c-136.68591,0-247.88586-111.202-247.88586-247.886a247.31405,247.31405,0,0,1,81.32495-183.436h-406.952A115.61447,115.61447,0,0,1,1381.555,409.83752H1013.856V242.92859H820.504v622.195h193.352v-453.095l413.861,458.053h273.97693l-100.282-96.17-159.584-176.621a309.3477,309.3477,0,0,0,180.744-110.029c28.671,215.784,213.865,382.82,437.36389,382.82h426.365v-39.662h-337.126V795.71558h237.97094V756.05353Z"/>
        <path class="cls-1" d="M514.776,330.5144H269.368a75.63185,75.63185,0,0,1-75.421-85.10693H.23c-.099,3.02405-.23,6.042-.23,9.09,0,148.531,120.84,269.368,269.368,269.368H514.776a75.193,75.193,0,1,1,0,150.386H37.183v193.351H514.776c148.078,0,268.545-120.467,268.545-268.543s-120.467-268.545-268.545-268.545"/>
        <path class="cls-2" d="M2389.62506,2.47888H2059.93585c-149.31286,0-281.51977,74.56311-361.39783,188.394h691.087Z"/>
        <path class="cls-2" d="M1381.55536,0H269.36835c-121.23,0-223.984,80.51709-257.66895,190.87305H1667.05829C1620.55731,78.93811,1510.11725,0,1381.55536,0"/>
        <rect class="cls-2" x="2322.69562" y="681.68732" width="39.66211" height="39.66199"/>
        <rect class="cls-2" x="2421.84967" y="756.05334" width="39.66211" height="39.66199"/>
        <rect class="cls-2" x="2521.0047" y="830.41931" width="39.66211" height="39.66199"/>
      </g>
    </g>
  </g>
</svg>
